<?xml version="1.0" encoding="UTF-8" standalone="no"?><svg xmlns="http://www.w3.org/2000/svg" xmlns:xlink="http://www.w3.org/1999/xlink" contentStyleType="text/css" height="575px" preserveAspectRatio="none" style="width:819px;height:575px;background:#00000000;" version="1.1" viewBox="0 0 819 575" width="819px" zoomAndPan="magnify"><defs/><g><!--MD5=[2f01b1126ff33a0669651ec2488a5ef9]
class Password--><g id="elem_Password"><rect codeLine="70" fill="#F1F1F1" height="64.5625" id="Password" rx="3.5" ry="3.5" style="stroke:#181818;stroke-width:0.5;" width="119" x="693.5" y="57"/><text fill="#000000" font-family="sans-serif" font-size="12" font-style="italic" lengthAdjust="spacing" textLength="40" x="733" y="73.1387">«value»</text><text fill="#000000" font-family="sans-serif" font-size="14" lengthAdjust="spacing" textLength="59" x="723.5" y="88.9639">Password</text><line style="stroke:#181818;stroke-width:0.5;" x1="694.5" x2="811.5" y1="97.2656" y2="97.2656"/><text fill="#000000" font-family="sans-serif" font-size="14" lengthAdjust="spacing" textLength="107" x="699.5" y="114.2607">password : string</text></g><!--MD5=[78bec0fde86ad92ec1dc3fb343b83709]
class Email--><g id="elem_Email"><rect codeLine="74" fill="#F1F1F1" height="64.5625" id="Email" rx="3.5" ry="3.5" style="stroke:#181818;stroke-width:0.5;" width="96" x="705" y="241"/><text fill="#000000" font-family="sans-serif" font-size="12" font-style="italic" lengthAdjust="spacing" textLength="40" x="733" y="257.1387">«value»</text><text fill="#000000" font-family="sans-serif" font-size="14" lengthAdjust="spacing" textLength="35" x="735.5" y="272.9639">Email</text><line style="stroke:#181818;stroke-width:0.5;" x1="706" x2="800" y1="281.2656" y2="281.2656"/><text fill="#000000" font-family="sans-serif" font-size="14" lengthAdjust="spacing" textLength="84" x="711" y="298.2607">email : string</text></g><!--MD5=[03be55fb4aae919908819e432b9694ea]
class Phone--><g id="elem_Phone"><rect codeLine="78" fill="#F1F1F1" height="64.5625" id="Phone" rx="3.5" ry="3.5" style="stroke:#181818;stroke-width:0.5;" width="100" x="703" y="384"/><text fill="#000000" font-family="sans-serif" font-size="12" font-style="italic" lengthAdjust="spacing" textLength="40" x="733" y="400.1387">«value»</text><text fill="#000000" font-family="sans-serif" font-size="14" lengthAdjust="spacing" textLength="40" x="733" y="415.9639">Phone</text><line style="stroke:#181818;stroke-width:0.5;" x1="704" x2="802" y1="424.2656" y2="424.2656"/><text fill="#000000" font-family="sans-serif" font-size="14" lengthAdjust="spacing" textLength="88" x="709" y="441.2607">phone : string</text></g><!--MD5=[b4d3d50c0abf08df45181fececb9f04d]
class Store--><g id="elem_Store"><rect codeLine="10" fill="#F1F1F1" height="50.5938" id="Store" rx="3.5" ry="3.5" style="stroke:#181818;stroke-width:0.5;" width="88" x="173" y="248"/><text fill="#000000" font-family="sans-serif" font-size="14" lengthAdjust="spacing" textLength="34" x="200" y="265.9951">Store</text><line style="stroke:#181818;stroke-width:0.5;" x1="174" x2="260" y1="274.2969" y2="274.2969"/><text fill="#000000" font-family="sans-serif" font-size="14" lengthAdjust="spacing" textLength="76" x="179" y="291.292">type : string</text></g><!--MD5=[cf4d6237fcae255cd2e1656cf84a30e2]
class Order--><g id="elem_Order"><rect codeLine="14" fill="#F1F1F1" height="164.6719" id="Order" rx="3.5" ry="3.5" style="stroke:#181818;stroke-width:0.5;" width="145" x="164.5" y="7"/><text fill="#000000" font-family="sans-serif" font-size="14" lengthAdjust="spacing" textLength="38" x="218" y="24.9951">Order</text><line style="stroke:#181818;stroke-width:0.5;" x1="165.5" x2="308.5" y1="33.2969" y2="33.2969"/><text fill="#000000" font-family="sans-serif" font-size="14" lengthAdjust="spacing" textLength="60" x="170.5" y="50.292">id : string</text><text fill="#000000" font-family="sans-serif" font-size="14" lengthAdjust="spacing" textLength="87" x="170.5" y="66.5889">cost : decimal</text><text fill="#000000" font-family="sans-serif" font-size="14" lengthAdjust="spacing" textLength="129" x="170.5" y="82.8857">confirmed : boolean</text><text fill="#000000" font-family="sans-serif" font-size="14" lengthAdjust="spacing" textLength="124" x="170.5" y="99.1826">delivered : boolean</text><text fill="#000000" font-family="sans-serif" font-size="14" lengthAdjust="spacing" textLength="124" x="170.5" y="115.4795">orderedTime : date</text><text fill="#000000" font-family="sans-serif" font-size="14" lengthAdjust="spacing" textLength="133" x="170.5" y="131.7764">deliveredTime : date</text><text fill="#000000" font-family="sans-serif" font-size="14" lengthAdjust="spacing" textLength="131" x="170.5" y="148.0732">estimatedWait : long</text><text fill="#000000" font-family="sans-serif" font-size="14" lengthAdjust="spacing" textLength="109" x="170.5" y="164.3701">/actualWait : long</text></g><!--MD5=[0a262f92e8cd8ea71ce260e50b301fa9]
class OrderProduct--><g id="elem_OrderProduct"><rect codeLine="25" fill="#F1F1F1" height="50.5938" id="OrderProduct" rx="3.5" ry="3.5" style="stroke:#181818;stroke-width:0.5;" width="93" x="45.5" y="248"/><text fill="#000000" font-family="sans-serif" font-size="14" lengthAdjust="spacing" textLength="87" x="48.5" y="265.9951">OrderProduct</text><line style="stroke:#181818;stroke-width:0.5;" x1="46.5" x2="137.5" y1="274.2969" y2="274.2969"/><text fill="#000000" font-family="sans-serif" font-size="14" lengthAdjust="spacing" textLength="81" x="51.5" y="291.292">quantity : int</text></g><!--MD5=[72136138052d025cffdce3c22fbd185f]
class Product--><g id="elem_Product"><rect codeLine="29" fill="#F1F1F1" height="50.5938" id="Product" rx="3.5" ry="3.5" style="stroke:#181818;stroke-width:0.5;" width="96" x="172" y="518"/><text fill="#000000" font-family="sans-serif" font-size="14" lengthAdjust="spacing" textLength="49" x="195.5" y="535.9951">Product</text><line style="stroke:#181818;stroke-width:0.5;" x1="173" x2="267" y1="544.2969" y2="544.2969"/><text fill="#000000" font-family="sans-serif" font-size="14" lengthAdjust="spacing" textLength="84" x="178" y="561.292">name : string</text></g><!--MD5=[29ef38f4fb1d32ad762f5be613b5567b]
class ProductDetails--><g id="elem_ProductDetails"><rect codeLine="33" fill="#F1F1F1" height="66.8906" id="ProductDetails" rx="3.5" ry="3.5" style="stroke:#181818;stroke-width:0.5;" width="121" x="61.5" y="383"/><text fill="#000000" font-family="sans-serif" font-size="14" lengthAdjust="spacing" textLength="93" x="75.5" y="400.9951">ProductDetails</text><line style="stroke:#181818;stroke-width:0.5;" x1="62.5" x2="181.5" y1="409.2969" y2="409.2969"/><text fill="#000000" font-family="sans-serif" font-size="14" lengthAdjust="spacing" textLength="94" x="67.5" y="426.292">price : decimal</text><text fill="#000000" font-family="sans-serif" font-size="14" lengthAdjust="spacing" textLength="109" x="67.5" y="442.5889">comment : string</text></g><!--MD5=[ed6624c6556d5e7b1bd23032162d20b7]
class Client--><g id="elem_Client"><rect codeLine="38" fill="#F1F1F1" height="115.7813" id="Client" rx="3.5" ry="3.5" style="stroke:#181818;stroke-width:0.5;" width="142" x="360" y="31.5"/><text fill="#000000" font-family="sans-serif" font-size="14" lengthAdjust="spacing" textLength="37" x="412.5" y="49.4951">Client</text><line style="stroke:#181818;stroke-width:0.5;" x1="361" x2="501" y1="57.7969" y2="57.7969"/><text fill="#000000" font-family="sans-serif" font-size="14" lengthAdjust="spacing" textLength="112" x="366" y="74.792">username : string</text><text fill="#000000" font-family="sans-serif" font-size="14" lengthAdjust="spacing" textLength="130" x="366" y="91.0889">password : Password</text><text fill="#000000" font-family="sans-serif" font-size="14" lengthAdjust="spacing" textLength="83" x="366" y="107.3857">email : Email</text><text fill="#000000" font-family="sans-serif" font-size="14" lengthAdjust="spacing" textLength="84" x="366" y="123.6826">name : string</text><text fill="#000000" font-family="sans-serif" font-size="14" lengthAdjust="spacing" textLength="92" x="366" y="139.9795">phone : Phone</text></g><!--MD5=[0f39e4cb6f03951afbf6d14bd2505654]
class Address--><g id="elem_Address"><rect codeLine="46" fill="#F1F1F1" height="83.1875" id="Address" rx="3.5" ry="3.5" style="stroke:#181818;stroke-width:0.5;" width="151" x="367.5" y="232"/><text fill="#000000" font-family="sans-serif" font-size="14" lengthAdjust="spacing" textLength="51" x="417.5" y="249.9951">Address</text><line style="stroke:#181818;stroke-width:0.5;" x1="368.5" x2="517.5" y1="258.2969" y2="258.2969"/><text fill="#000000" font-family="sans-serif" font-size="14" lengthAdjust="spacing" textLength="124" x="373.5" y="275.292">streetName : string</text><text fill="#000000" font-family="sans-serif" font-size="14" lengthAdjust="spacing" textLength="139" x="373.5" y="291.5889">streetNumber : string</text><text fill="#000000" font-family="sans-serif" font-size="14" lengthAdjust="spacing" textLength="115" x="373.5" y="307.8857">apartment : string</text></g><!--MD5=[7cfcec95ce8c7b3cc21f2a5540b61e10]
class Area--><g id="elem_Area"><rect codeLine="52" fill="#F1F1F1" height="83.1875" id="Area" rx="3.5" ry="3.5" style="stroke:#181818;stroke-width:0.5;" width="110" x="290" y="375"/><text fill="#000000" font-family="sans-serif" font-size="14" lengthAdjust="spacing" textLength="30" x="330" y="392.9951">Area</text><line style="stroke:#181818;stroke-width:0.5;" x1="291" x2="399" y1="401.2969" y2="401.2969"/><text fill="#000000" font-family="sans-serif" font-size="14" lengthAdjust="spacing" textLength="70" x="296" y="418.292">city : string</text><text fill="#000000" font-family="sans-serif" font-size="14" lengthAdjust="spacing" textLength="79" x="296" y="434.5889">state : string</text><text fill="#000000" font-family="sans-serif" font-size="14" lengthAdjust="spacing" textLength="98" x="296" y="450.8857">zipCode : string</text></g><!--MD5=[eb0e8f8ddfdc21c3fdb48447501fec67]
class Review--><g id="elem_Review"><rect codeLine="58" fill="#F1F1F1" height="50.5938" id="Review" rx="3.5" ry="3.5" style="stroke:#181818;stroke-width:0.5;" width="78" x="545" y="64"/><text fill="#000000" font-family="sans-serif" font-size="14" font-style="italic" lengthAdjust="spacing" textLength="45" x="561.5" y="81.9951">Review</text><line style="stroke:#181818;stroke-width:0.5;" x1="546" x2="622" y1="90.2969" y2="90.2969"/><text fill="#000000" font-family="sans-serif" font-size="14" lengthAdjust="spacing" textLength="66" x="551" y="107.292">rating : int</text></g><!--MD5=[1dc52589c41e02847c0ba8224d826157]
class OrderReview--><g id="elem_OrderReview"><rect codeLine="62" fill="#F1F1F1" height="50.5938" id="OrderReview" rx="3.5" ry="3.5" style="stroke:#181818;stroke-width:0.5;" width="121" x="451.5" y="391"/><text fill="#000000" font-family="sans-serif" font-size="14" lengthAdjust="spacing" textLength="83" x="470.5" y="408.9951">OrderReview</text><line style="stroke:#181818;stroke-width:0.5;" x1="452.5" x2="571.5" y1="417.2969" y2="417.2969"/><text fill="#000000" font-family="sans-serif" font-size="14" lengthAdjust="spacing" textLength="109" x="457.5" y="434.292">comment : string</text></g><!--MD5=[7fbc0bc65ff75c22e8c3920d30806250]
class ProductReview--><g id="elem_ProductReview"><rect codeLine="66" fill="#F1F1F1" height="34.2969" id="ProductReview" rx="3.5" ry="3.5" style="stroke:#181818;stroke-width:0.5;" width="100" x="462" y="526.5"/><text fill="#000000" font-family="sans-serif" font-size="14" lengthAdjust="spacing" textLength="94" x="465" y="544.4951">ProductReview</text><line style="stroke:#181818;stroke-width:0.5;" x1="463" x2="561" y1="552.7969" y2="552.7969"/></g><ellipse cx="8" cy="273.5" fill="#000000" rx="2" ry="2" style="stroke:none;stroke-width:1.0;"/><ellipse cx="220" cy="416.5" fill="#000000" rx="2" ry="2" style="stroke:none;stroke-width:1.0;"/><!--MD5=[20f8ac4528b719eba11fa58e88e9745f]
link Password to Email--><!--MD5=[bad1c19447ebef6cee51282b2c111067]
link Email to Phone--><!--MD5=[4ad6eb66c860742e5be36df12d127074]
reverse link Review to OrderReview--><g id="link_Review_OrderReview"><path codeLine="86" d="M558.75,135.16 C558.75,135.16 558.75,390.96 558.75,390.96 " fill="none" id="Review-backto-OrderReview" style="stroke:#454645;stroke-width:1.0;"/><polygon fill="none" points="551.75,135.16,558.75,115.16,565.75,135.16,551.75,135.16" style="stroke:#454645;stroke-width:1.0;"/></g><!--MD5=[b6b3086cbe57d3eedd118d459a6254d5]
reverse link Review to ProductReview--><g id="link_Review_ProductReview"><path codeLine="87" d="M597.75,135.24 C597.75,135.24 597.75,544 597.75,544 C597.75,544 581.04,544 562.38,544 " fill="none" id="Review-backto-ProductReview" style="stroke:#454645;stroke-width:1.0;"/><polygon fill="none" points="590.75,135.24,597.75,115.24,604.75,135.24,590.75,135.24" style="stroke:#454645;stroke-width:1.0;"/></g><!--MD5=[b4eabd1a63a4ad1f2f93b60573323bf1]
link Order to Client--><g id="link_Order_Client"><path codeLine="89" d="M309.51,90 C325.98,90 343.45,90 359.86,90 " fill="none" id="Order-Client" style="stroke:#454645;stroke-width:1.0;"/><text fill="#000000" font-family="sans-serif" font-size="13" lengthAdjust="spacing" textLength="7" x="317.3485" y="86.3688">*</text><text fill="#000000" font-family="sans-serif" font-size="13" lengthAdjust="spacing" textLength="7" x="345.1628" y="86.3631">1</text></g><!--MD5=[ae68b2c271ecb259bf8605a0176283b6]
reverse link Client to Address--><g id="link_Client_Address"><path codeLine="90" d="M434.75,160.72 C434.75,160.72 434.75,231.98 434.75,231.98 " fill="none" id="Client-backto-Address" style="stroke:#454645;stroke-width:1.0;"/><polygon fill="#454645" points="434.75,147.72,430.75,153.72,434.75,159.72,438.75,153.72,434.75,147.72" style="stroke:#454645;stroke-width:1.0;"/><text fill="#000000" font-family="sans-serif" font-size="13" lengthAdjust="spacing" textLength="3" x="403.3008" y="167.3627"> </text><text fill="#000000" font-family="sans-serif" font-size="13" lengthAdjust="spacing" textLength="7" x="425.3008" y="182.4955">*</text><text fill="#000000" font-family="sans-serif" font-size="13" lengthAdjust="spacing" textLength="20" x="411.7273" y="220.9234">1..*</text></g><!--MD5=[fd1dc80f23477c95e792822846b0130a]
link Order to Store--><g id="link_Order_Store"><path codeLine="92" d="M217,172.08 C217,199.4 217,227.85 217,247.63 " fill="none" id="Order-Store" style="stroke:#454645;stroke-width:1.0;"/><text fill="#000000" font-family="sans-serif" font-size="13" lengthAdjust="spacing" textLength="7" x="204.9297" y="191.6257">*</text><text fill="#000000" font-family="sans-serif" font-size="13" lengthAdjust="spacing" textLength="7" x="205.8438" y="237.0424">1</text></g><!--MD5=[88d9fb0570bd57c726efb7e1e2730bf4]
reverse link Order to apoint27--><g id="link_Order_apoint27"><path d="M151.23,90 C151.23,90 8,90 8,90 C8,90 8,251.28 8,271.44 " fill="none" id="Order-backto-apoint27" style="stroke:#454645;stroke-width:1.0;"/><polygon fill="none" points="164.23,90,158.23,86,152.23,90,158.23,94,164.23,90" style="stroke:#454645;stroke-width:1.0;"/><text fill="#000000" font-family="sans-serif" font-size="13" lengthAdjust="spacing" textLength="7" x="149.3647" y="86.3688">*</text></g><!--MD5=[b9d99f478c705a2d10ab9f2978c24cc8]
link apoint27 to Product--><g id="link_apoint27_Product"><path d="M8,275.52 C8,300.28 8,544 8,544 C8,544 109.35,544 171.89,544 " fill="none" id="apoint27-Product" style="stroke:#454645;stroke-width:1.0;"/><text fill="#000000" font-family="sans-serif" font-size="13" lengthAdjust="spacing" textLength="20" x="144.0815" y="540.1625">1..*</text></g><!--MD5=[1e9ff32ca7a66ba0ec37ce568fb0676e]
link apoint27 to OrderProduct--><g id="link_apoint27_OrderProduct"><path d="M10.08,274 C15.33,274 29.84,274 45.21,274 " fill="none" id="apoint27-OrderProduct" style="stroke:#454645;stroke-width:1.0;stroke-dasharray:7.0,7.0;"/></g><!--MD5=[f1ed4176720a71e682d366719118c239]
link Store to Area--><g id="link_Store_Area"><path codeLine="96" d="M241.5,299.04 C241.5,330.26 241.5,379 241.5,379 C241.5,379 265.2,379 289.92,379 " fill="none" id="Store-Area" style="stroke:#454645;stroke-width:1.0;"/><text fill="#000000" font-family="sans-serif" font-size="13" lengthAdjust="spacing" textLength="7" x="249.9406" y="318.8097">*</text><text fill="#000000" font-family="sans-serif" font-size="13" lengthAdjust="spacing" textLength="20" x="259.0483" y="370.8606">1..*</text></g><!--MD5=[260003b0d84b6e369157079ffe63d98d]
reverse link Store to apoint34--><g id="link_Store_apoint34"><path d="M220,312.07 C220,312.07 220,414.26 220,414.26 " fill="none" id="Store-backto-apoint34" style="stroke:#454645;stroke-width:1.0;"/><polygon fill="none" points="220,299.07,216,305.07,220,311.07,224,305.07,220,299.07" style="stroke:#454645;stroke-width:1.0;"/><text fill="#000000" font-family="sans-serif" font-size="13" lengthAdjust="spacing" textLength="7" x="209.5375" y="318.8467">1</text></g><!--MD5=[7a896df5dd5640322cbbfc1736517e4f]
link apoint34 to Product--><g id="link_apoint34_Product"><path d="M220,418.7 C220,430.3 220,484.94 220,517.95 " fill="none" id="apoint34-Product" style="stroke:#454645;stroke-width:1.0;"/><text fill="#000000" font-family="sans-serif" font-size="13" lengthAdjust="spacing" textLength="20" x="197.5625" y="507.0267">1..*</text></g><!--MD5=[c007a1f7f16f35c977cf5f0737e37a65]
link ProductDetails to apoint34--><g id="link_ProductDetails_apoint34"><path d="M182.67,417 C198.65,417 212.87,417 217.98,417 " fill="none" id="ProductDetails-apoint34" style="stroke:#454645;stroke-width:1.0;stroke-dasharray:7.0,7.0;"/></g><!--MD5=[19335a2b6d3dab2942ded7b61f24b4d0]
reverse link Address to Area--><g id="link_Address_Area"><path codeLine="100" d="M383.75,328.25 C383.75,328.25 383.75,374.95 383.75,374.95 " fill="none" id="Address-backto-Area" style="stroke:#454645;stroke-width:1.0;"/><polygon fill="none" points="383.75,315.25,379.75,321.25,383.75,327.25,387.75,321.25,383.75,315.25" style="stroke:#454645;stroke-width:1.0;"/><text fill="#000000" font-family="sans-serif" font-size="13" lengthAdjust="spacing" textLength="7" x="366.7492" y="335.1618">*</text><text fill="#000000" font-family="sans-serif" font-size="13" lengthAdjust="spacing" textLength="7" x="372.843" y="363.8885">1</text></g><!--MD5=[6fb4f6b9a161f4a1b420a8c3118d3994]
link Order to OrderReview--><g id="link_Order_OrderReview"><path codeLine="102" d="M309.86,160 C397.14,160 531.75,160 531.75,160 C531.75,160 531.75,326.09 531.75,390.97 " fill="none" id="Order-OrderReview" style="stroke:#454645;stroke-width:1.0;"/><text fill="#000000" font-family="sans-serif" font-size="13" lengthAdjust="spacing" textLength="3" x="319.7346" y="116.2878"> </text><text fill="#000000" font-family="sans-serif" font-size="13" lengthAdjust="spacing" textLength="3" x="319.7346" y="131.4206"> </text><text fill="#000000" font-family="sans-serif" font-size="13" lengthAdjust="spacing" textLength="3" x="319.7346" y="146.5534"> </text><text fill="#000000" font-family="sans-serif" font-size="13" lengthAdjust="spacing" textLength="7" x="317.7346" y="161.6862">*</text><text fill="#000000" font-family="sans-serif" font-size="13" lengthAdjust="spacing" textLength="7" x="521.9797" y="380.0515">1</text></g><!--MD5=[863a5a6b7ac82bcb816665c88ca96542]
reverse link OrderReview to ProductReview--><g id="link_OrderReview_ProductReview"><path codeLine="103" d="M512,455.2 C512,455.2 512,526.37 512,526.37 " fill="none" id="OrderReview-backto-ProductReview" style="stroke:#454645;stroke-width:1.0;"/><polygon fill="#454645" points="512,442.2,508,448.2,512,454.2,516,448.2,512,442.2" style="stroke:#454645;stroke-width:1.0;"/><text fill="#000000" font-family="sans-serif" font-size="13" lengthAdjust="spacing" textLength="7" x="500.9063" y="461.5884">1</text><text fill="#000000" font-family="sans-serif" font-size="13" lengthAdjust="spacing" textLength="7" x="500.4063" y="515.5599">*</text></g><!--MD5=[d0735bc79fef481e5a12954dad99bb99]
link Product to ProductReview--><g id="link_Product_ProductReview"><path codeLine="104" d="M268.22,544 C268.22,544 448.75,544 448.75,544 " fill="none" id="Product-to-ProductReview" style="stroke:#454645;stroke-width:1.0;"/><polygon fill="none" points="461.75,544,455.75,540,449.75,544,455.75,548,461.75,544" style="stroke:#454645;stroke-width:1.0;"/><text fill="#000000" font-family="sans-serif" font-size="13" lengthAdjust="spacing" textLength="7" x="276.1396" y="540.0363">1</text><text fill="#000000" font-family="sans-serif" font-size="13" lengthAdjust="spacing" textLength="7" x="446.8555" y="540.0267">*</text></g></g></svg>