<?xml version="1.0" encoding="UTF-8" standalone="no"?><svg xmlns="http://www.w3.org/2000/svg" xmlns:xlink="http://www.w3.org/1999/xlink" contentStyleType="text/css" height="465px" preserveAspectRatio="none" style="width:842px;height:465px;background:#FFFFFF;" version="1.1" viewBox="0 0 842 465" width="842px" zoomAndPan="magnify"><defs/><g><!--MD5=[2f01b1126ff33a0669651ec2488a5ef9]
class Password--><g id="elem_Password"><rect codeLine="68" fill="#F1F1F1" height="64.5625" id="Password" rx="3.5" ry="3.5" style="stroke:#181818;stroke-width:0.5;" width="119" x="716.5" y="57"/><text fill="#000000" font-family="sans-serif" font-size="12" font-style="italic" lengthAdjust="spacing" textLength="40" x="756" y="73.1387">«value»</text><text fill="#000000" font-family="sans-serif" font-size="14" lengthAdjust="spacing" textLength="59" x="746.5" y="88.9639">Password</text><line style="stroke:#181818;stroke-width:0.5;" x1="717.5" x2="834.5" y1="97.2656" y2="97.2656"/><text fill="#000000" font-family="sans-serif" font-size="14" lengthAdjust="spacing" textLength="107" x="722.5" y="114.2607">password : string</text></g><!--MD5=[78bec0fde86ad92ec1dc3fb343b83709]
class Email--><g id="elem_Email"><rect codeLine="72" fill="#F1F1F1" height="64.5625" id="Email" rx="3.5" ry="3.5" style="stroke:#181818;stroke-width:0.5;" width="96" x="728" y="241"/><text fill="#000000" font-family="sans-serif" font-size="12" font-style="italic" lengthAdjust="spacing" textLength="40" x="756" y="257.1387">«value»</text><text fill="#000000" font-family="sans-serif" font-size="14" lengthAdjust="spacing" textLength="35" x="758.5" y="272.9639">Email</text><line style="stroke:#181818;stroke-width:0.5;" x1="729" x2="823" y1="281.2656" y2="281.2656"/><text fill="#000000" font-family="sans-serif" font-size="14" lengthAdjust="spacing" textLength="84" x="734" y="298.2607">email : string</text></g><!--MD5=[03be55fb4aae919908819e432b9694ea]
class Phone--><g id="elem_Phone"><rect codeLine="76" fill="#F1F1F1" height="64.5625" id="Phone" rx="3.5" ry="3.5" style="stroke:#181818;stroke-width:0.5;" width="100" x="726" y="384"/><text fill="#000000" font-family="sans-serif" font-size="12" font-style="italic" lengthAdjust="spacing" textLength="40" x="756" y="400.1387">«value»</text><text fill="#000000" font-family="sans-serif" font-size="14" lengthAdjust="spacing" textLength="40" x="756" y="415.9639">Phone</text><line style="stroke:#181818;stroke-width:0.5;" x1="727" x2="825" y1="424.2656" y2="424.2656"/><text fill="#000000" font-family="sans-serif" font-size="14" lengthAdjust="spacing" textLength="88" x="732" y="441.2607">phone : string</text></g><!--MD5=[b4d3d50c0abf08df45181fececb9f04d]
class Store--><g id="elem_Store"><rect codeLine="10" fill="#F1F1F1" height="66.8906" id="Store" rx="3.5" ry="3.5" style="stroke:#181818;stroke-width:0.5;" width="96" x="174" y="240"/><text fill="#000000" font-family="sans-serif" font-size="14" lengthAdjust="spacing" textLength="34" x="205" y="257.9951">Store</text><line style="stroke:#181818;stroke-width:0.5;" x1="175" x2="269" y1="266.2969" y2="266.2969"/><text fill="#000000" font-family="sans-serif" font-size="14" lengthAdjust="spacing" textLength="84" x="180" y="283.292">name : string</text><text fill="#000000" font-family="sans-serif" font-size="14" lengthAdjust="spacing" textLength="76" x="180" y="299.5889">type : string</text></g><!--MD5=[cf4d6237fcae255cd2e1656cf84a30e2]
class Order--><g id="elem_Order"><rect codeLine="15" fill="#F1F1F1" height="164.6719" id="Order" rx="3.5" ry="3.5" style="stroke:#181818;stroke-width:0.5;" width="145" x="138.5" y="7"/><text fill="#000000" font-family="sans-serif" font-size="14" lengthAdjust="spacing" textLength="38" x="192" y="24.9951">Order</text><line style="stroke:#181818;stroke-width:0.5;" x1="139.5" x2="282.5" y1="33.2969" y2="33.2969"/><text fill="#000000" font-family="sans-serif" font-size="14" lengthAdjust="spacing" textLength="60" x="144.5" y="50.292">id : string</text><text fill="#000000" font-family="sans-serif" font-size="14" lengthAdjust="spacing" textLength="87" x="144.5" y="66.5889">cost : decimal</text><text fill="#000000" font-family="sans-serif" font-size="14" lengthAdjust="spacing" textLength="129" x="144.5" y="82.8857">confirmed : boolean</text><text fill="#000000" font-family="sans-serif" font-size="14" lengthAdjust="spacing" textLength="124" x="144.5" y="99.1826">delivered : boolean</text><text fill="#000000" font-family="sans-serif" font-size="14" lengthAdjust="spacing" textLength="124" x="144.5" y="115.4795">orderedTime : date</text><text fill="#000000" font-family="sans-serif" font-size="14" lengthAdjust="spacing" textLength="133" x="144.5" y="131.7764">deliveredTime : date</text><text fill="#000000" font-family="sans-serif" font-size="14" lengthAdjust="spacing" textLength="131" x="144.5" y="148.0732">estimatedWait : long</text><text fill="#000000" font-family="sans-serif" font-size="14" lengthAdjust="spacing" textLength="109" x="144.5" y="164.3701">/actualWait : long</text></g><!--MD5=[0a262f92e8cd8ea71ce260e50b301fa9]
class OrderProduct--><g id="elem_OrderProduct"><rect codeLine="26" fill="#F1F1F1" height="50.5938" id="OrderProduct" rx="3.5" ry="3.5" style="stroke:#181818;stroke-width:0.5;" width="93" x="45.5" y="248"/><text fill="#000000" font-family="sans-serif" font-size="14" lengthAdjust="spacing" textLength="87" x="48.5" y="265.9951">OrderProduct</text><line style="stroke:#181818;stroke-width:0.5;" x1="46.5" x2="137.5" y1="274.2969" y2="274.2969"/><text fill="#000000" font-family="sans-serif" font-size="14" lengthAdjust="spacing" textLength="81" x="51.5" y="291.292">quantity : int</text></g><!--MD5=[72136138052d025cffdce3c22fbd185f]
class Product--><g id="elem_Product"><rect codeLine="30" fill="#F1F1F1" height="83.1875" id="Product" rx="3.5" ry="3.5" style="stroke:#181818;stroke-width:0.5;" width="121" x="161.5" y="375"/><text fill="#000000" font-family="sans-serif" font-size="14" lengthAdjust="spacing" textLength="49" x="197.5" y="392.9951">Product</text><line style="stroke:#181818;stroke-width:0.5;" x1="162.5" x2="281.5" y1="401.2969" y2="401.2969"/><text fill="#000000" font-family="sans-serif" font-size="14" lengthAdjust="spacing" textLength="84" x="167.5" y="418.292">name : string</text><text fill="#000000" font-family="sans-serif" font-size="14" lengthAdjust="spacing" textLength="94" x="167.5" y="434.5889">price : decimal</text><text fill="#000000" font-family="sans-serif" font-size="14" lengthAdjust="spacing" textLength="109" x="167.5" y="450.8857">comment : string</text></g><!--MD5=[ed6624c6556d5e7b1bd23032162d20b7]
class Client--><g id="elem_Client"><rect codeLine="36" fill="#F1F1F1" height="115.7813" id="Client" rx="3.5" ry="3.5" style="stroke:#181818;stroke-width:0.5;" width="142" x="319" y="31.5"/><text fill="#000000" font-family="sans-serif" font-size="14" lengthAdjust="spacing" textLength="37" x="371.5" y="49.4951">Client</text><line style="stroke:#181818;stroke-width:0.5;" x1="320" x2="460" y1="57.7969" y2="57.7969"/><text fill="#000000" font-family="sans-serif" font-size="14" lengthAdjust="spacing" textLength="112" x="325" y="74.792">username : string</text><text fill="#000000" font-family="sans-serif" font-size="14" lengthAdjust="spacing" textLength="130" x="325" y="91.0889">password : Password</text><text fill="#000000" font-family="sans-serif" font-size="14" lengthAdjust="spacing" textLength="83" x="325" y="107.3857">email : Email</text><text fill="#000000" font-family="sans-serif" font-size="14" lengthAdjust="spacing" textLength="84" x="325" y="123.6826">name : string</text><text fill="#000000" font-family="sans-serif" font-size="14" lengthAdjust="spacing" textLength="92" x="325" y="139.9795">phone : Phone</text></g><!--MD5=[0f39e4cb6f03951afbf6d14bd2505654]
class Address--><g id="elem_Address"><rect codeLine="44" fill="#F1F1F1" height="83.1875" id="Address" rx="3.5" ry="3.5" style="stroke:#181818;stroke-width:0.5;" width="151" x="305.5" y="232"/><text fill="#000000" font-family="sans-serif" font-size="14" lengthAdjust="spacing" textLength="51" x="355.5" y="249.9951">Address</text><line style="stroke:#181818;stroke-width:0.5;" x1="306.5" x2="455.5" y1="258.2969" y2="258.2969"/><text fill="#000000" font-family="sans-serif" font-size="14" lengthAdjust="spacing" textLength="124" x="311.5" y="275.292">streetName : string</text><text fill="#000000" font-family="sans-serif" font-size="14" lengthAdjust="spacing" textLength="139" x="311.5" y="291.5889">streetNumber : string</text><text fill="#000000" font-family="sans-serif" font-size="14" lengthAdjust="spacing" textLength="115" x="311.5" y="307.8857">apartment : string</text></g><!--MD5=[7cfcec95ce8c7b3cc21f2a5540b61e10]
class Area--><g id="elem_Area"><rect codeLine="50" fill="#F1F1F1" height="83.1875" id="Area" rx="3.5" ry="3.5" style="stroke:#181818;stroke-width:0.5;" width="91" x="326.5" y="375"/><text fill="#000000" font-family="sans-serif" font-size="14" lengthAdjust="spacing" textLength="30" x="357" y="392.9951">Area</text><line style="stroke:#181818;stroke-width:0.5;" x1="327.5" x2="416.5" y1="401.2969" y2="401.2969"/><text fill="#000000" font-family="sans-serif" font-size="14" lengthAdjust="spacing" textLength="70" x="332.5" y="418.292">city : string</text><text fill="#000000" font-family="sans-serif" font-size="14" lengthAdjust="spacing" textLength="79" x="332.5" y="434.5889">state : string</text><text fill="#000000" font-family="sans-serif" font-size="14" lengthAdjust="spacing" textLength="79" x="332.5" y="450.8857">zipCode : int</text></g><!--MD5=[eb0e8f8ddfdc21c3fdb48447501fec67]
class Review--><g id="elem_Review"><rect codeLine="56" fill="#F1F1F1" height="50.5938" id="Review" rx="3.5" ry="3.5" style="stroke:#181818;stroke-width:0.5;" width="94" x="546" y="64"/><text fill="#000000" font-family="sans-serif" font-size="14" font-style="italic" lengthAdjust="spacing" textLength="45" x="570.5" y="81.9951">Review</text><line style="stroke:#181818;stroke-width:0.5;" x1="547" x2="639" y1="90.2969" y2="90.2969"/><text fill="#000000" font-family="sans-serif" font-size="14" lengthAdjust="spacing" textLength="82" x="552" y="107.292">rating : short</text></g><!--MD5=[1dc52589c41e02847c0ba8224d826157]
class OrderReview--><g id="elem_OrderReview"><rect codeLine="60" fill="#F1F1F1" height="50.5938" id="OrderReview" rx="3.5" ry="3.5" style="stroke:#181818;stroke-width:0.5;" width="121" x="491.5" y="248"/><text fill="#000000" font-family="sans-serif" font-size="14" lengthAdjust="spacing" textLength="83" x="510.5" y="265.9951">OrderReview</text><line style="stroke:#181818;stroke-width:0.5;" x1="492.5" x2="611.5" y1="274.2969" y2="274.2969"/><text fill="#000000" font-family="sans-serif" font-size="14" lengthAdjust="spacing" textLength="109" x="497.5" y="291.292">comment : string</text></g><!--MD5=[7fbc0bc65ff75c22e8c3920d30806250]
class ProductReview--><g id="elem_ProductReview"><rect codeLine="64" fill="#F1F1F1" height="34.2969" id="ProductReview" rx="3.5" ry="3.5" style="stroke:#181818;stroke-width:0.5;" width="100" x="502" y="399.5"/><text fill="#000000" font-family="sans-serif" font-size="14" lengthAdjust="spacing" textLength="94" x="505" y="417.4951">ProductReview</text><line style="stroke:#181818;stroke-width:0.5;" x1="503" x2="601" y1="425.7969" y2="425.7969"/></g><ellipse cx="8" cy="273.5" fill="#000000" rx="2" ry="2" style="stroke:none;stroke-width:1.0;"/><!--MD5=[20f8ac4528b719eba11fa58e88e9745f]
link Password to Email--><!--MD5=[bad1c19447ebef6cee51282b2c111067]
link Email to Phone--><!--MD5=[4ad6eb66c860742e5be36df12d127074]
reverse link Review to OrderReview--><g id="link_Review_OrderReview"><path codeLine="84" d="M579.25,135.08 C579.25,135.08 579.25,247.84 579.25,247.84 " fill="none" id="Review-backto-OrderReview" style="stroke:#454645;stroke-width:1.0;"/><polygon fill="none" points="572.25,135.08,579.25,115.08,586.25,135.08,572.25,135.08" style="stroke:#454645;stroke-width:1.0;"/></g><!--MD5=[b6b3086cbe57d3eedd118d459a6254d5]
reverse link Review to ProductReview--><g id="link_Review_ProductReview"><path codeLine="85" d="M626.25,135.2 C626.25,135.2 626.25,417 626.25,417 C626.25,417 615.59,417 602.35,417 " fill="none" id="Review-backto-ProductReview" style="stroke:#454645;stroke-width:1.0;"/><polygon fill="none" points="619.25,135.2,626.25,115.2,633.25,135.2,619.25,135.2" style="stroke:#454645;stroke-width:1.0;"/></g><!--MD5=[b4eabd1a63a4ad1f2f93b60573323bf1]
link Order to Client--><g id="link_Order_Client"><path codeLine="87" d="M283.55,90 C295.18,90 307.2,90 318.8,90 " fill="none" id="Order-Client" style="stroke:#454645;stroke-width:1.0;"/><text fill="#000000" font-family="sans-serif" font-size="13" lengthAdjust="spacing" textLength="7" x="291.3927" y="86.3688">*</text><text fill="#000000" font-family="sans-serif" font-size="13" lengthAdjust="spacing" textLength="7" x="304.0966" y="86.3631">1</text></g><!--MD5=[ae68b2c271ecb259bf8605a0176283b6]
reverse link Client to Address--><g id="link_Client_Address"><path codeLine="88" d="M387.75,160.72 C387.75,160.72 387.75,231.98 387.75,231.98 " fill="none" id="Client-backto-Address" style="stroke:#454645;stroke-width:1.0;"/><polygon fill="#454645" points="387.75,147.72,383.75,153.72,387.75,159.72,391.75,153.72,387.75,147.72" style="stroke:#454645;stroke-width:1.0;"/><text fill="#000000" font-family="sans-serif" font-size="13" lengthAdjust="spacing" textLength="3" x="355.682" y="167.3627"> </text><text fill="#000000" font-family="sans-serif" font-size="13" lengthAdjust="spacing" textLength="7" x="377.682" y="182.4955">*</text><text fill="#000000" font-family="sans-serif" font-size="13" lengthAdjust="spacing" textLength="7" x="378.0398" y="220.9234">1</text></g><!--MD5=[fd1dc80f23477c95e792822846b0130a]
link Order to Store--><g id="link_Order_Store"><path codeLine="90" d="M222,172.08 C222,195.97 222,220.71 222,239.77 " fill="none" id="Order-Store" style="stroke:#454645;stroke-width:1.0;"/><text fill="#000000" font-family="sans-serif" font-size="13" lengthAdjust="spacing" textLength="7" x="212.4969" y="191.6257">*</text><text fill="#000000" font-family="sans-serif" font-size="13" lengthAdjust="spacing" textLength="7" x="211.0469" y="229.0005">1</text></g><!--MD5=[4f15fc89fa2470d3405be9e8e7c5b96e]
reverse link Order to apoint26--><g id="link_Order_apoint26"><path d="M125.29,90 C125.29,90 8,90 8,90 C8,90 8,251.28 8,271.44 " fill="none" id="Order-backto-apoint26" style="stroke:#454645;stroke-width:1.0;"/><polygon fill="none" points="138.29,90,132.29,86,126.29,90,132.29,94,138.29,90" style="stroke:#454645;stroke-width:1.0;"/><text fill="#000000" font-family="sans-serif" font-size="13" lengthAdjust="spacing" textLength="7" x="123.4308" y="86.3688">*</text></g><!--MD5=[2b35b9fec777124195db806368b65bd2]
link apoint26 to Product--><g id="link_apoint26_Product"><path d="M8,275.53 C8,292.97 8,417 8,417 C8,417 97.98,417 161.25,417 " fill="none" id="apoint26-Product" style="stroke:#454645;stroke-width:1.0;"/><text fill="#000000" font-family="sans-serif" font-size="13" lengthAdjust="spacing" textLength="20" x="130.3477" y="413.2983">1..*</text></g><!--MD5=[c183f779a1b50044343b2954673e4852]
link apoint26 to OrderProduct--><g id="link_apoint26_OrderProduct"><path d="M10.08,274 C15.33,274 29.84,274 45.21,274 " fill="none" id="apoint26-OrderProduct" style="stroke:#454645;stroke-width:1.0;stroke-dasharray:7.0,7.0;"/></g><!--MD5=[f1ed4176720a71e682d366719118c239]
link Store to Area--><g id="link_Store_Area"><path codeLine="94" d="M270.36,274 C283.66,274 294.5,274 294.5,274 C294.5,274 294.5,417 294.5,417 C294.5,417 309.6,417 326.47,417 " fill="none" id="Store-Area" style="stroke:#454645;stroke-width:1.0;"/><text fill="#000000" font-family="sans-serif" font-size="13" lengthAdjust="spacing" textLength="7" x="278.0747" y="270.0995">*</text><text fill="#000000" font-family="sans-serif" font-size="13" lengthAdjust="spacing" textLength="20" x="298.4502" y="413.0787">1..*</text></g><!--MD5=[01c78f2107648ab7f52eb12fc9b2dd8f]
reverse link Store to Product--><g id="link_Store_Product"><path codeLine="95" d="M222,320.03 C222,320.03 222,374.74 222,374.74 " fill="none" id="Store-backto-Product" style="stroke:#454645;stroke-width:1.0;"/><polygon fill="none" points="222,307.03,218,313.03,222,319.03,226,313.03,222,307.03" style="stroke:#454645;stroke-width:1.0;"/><text fill="#000000" font-family="sans-serif" font-size="13" lengthAdjust="spacing" textLength="7" x="211.0469" y="326.9413">1</text><text fill="#000000" font-family="sans-serif" font-size="13" lengthAdjust="spacing" textLength="20" x="200.4063" y="363.9517">1..*</text></g><!--MD5=[19335a2b6d3dab2942ded7b61f24b4d0]
reverse link Address to Area--><g id="link_Address_Area"><path codeLine="97" d="M372,328.25 C372,328.25 372,374.95 372,374.95 " fill="none" id="Address-backto-Area" style="stroke:#454645;stroke-width:1.0;"/><polygon fill="none" points="372,315.25,368,321.25,372,327.25,376,321.25,372,315.25" style="stroke:#454645;stroke-width:1.0;"/><text fill="#000000" font-family="sans-serif" font-size="13" lengthAdjust="spacing" textLength="7" x="359.7688" y="335.1618">*</text><text fill="#000000" font-family="sans-serif" font-size="13" lengthAdjust="spacing" textLength="7" x="361.1719" y="363.8885">1</text></g><!--MD5=[6fb4f6b9a161f4a1b420a8c3118d3994]
link Order to OrderReview--><g id="link_Order_OrderReview"><path codeLine="99" d="M283.54,160 C374.53,160 518.75,160 518.75,160 C518.75,160 518.75,214.26 518.75,247.75 " fill="none" id="Order-OrderReview" style="stroke:#454645;stroke-width:1.0;"/><text fill="#000000" font-family="sans-serif" font-size="13" lengthAdjust="spacing" textLength="3" x="293.3816" y="116.2878"> </text><text fill="#000000" font-family="sans-serif" font-size="13" lengthAdjust="spacing" textLength="3" x="293.3816" y="131.4206"> </text><text fill="#000000" font-family="sans-serif" font-size="13" lengthAdjust="spacing" textLength="3" x="293.3816" y="146.5534"> </text><text fill="#000000" font-family="sans-serif" font-size="13" lengthAdjust="spacing" textLength="7" x="291.3816" y="161.6862">*</text><text fill="#000000" font-family="sans-serif" font-size="13" lengthAdjust="spacing" textLength="7" x="502.7922" y="236.7779">1</text></g><!--MD5=[863a5a6b7ac82bcb816665c88ca96542]
reverse link OrderReview to ProductReview--><g id="link_OrderReview_ProductReview"><path codeLine="100" d="M568.67,312.07 C568.67,312.07 568.67,399.24 568.67,399.24 " fill="none" id="OrderReview-backto-ProductReview" style="stroke:#454645;stroke-width:1.0;"/><polygon fill="#454645" points="568.67,299.07,564.67,305.07,568.67,311.07,572.67,305.07,568.67,299.07" style="stroke:#454645;stroke-width:1.0;"/><text fill="#000000" font-family="sans-serif" font-size="13" lengthAdjust="spacing" textLength="7" x="558.0218" y="318.8467">1</text><text fill="#000000" font-family="sans-serif" font-size="13" lengthAdjust="spacing" textLength="7" x="558.9117" y="388.3885">*</text></g><!--MD5=[d0735bc79fef481e5a12954dad99bb99]
link Product to ProductReview--><g id="link_Product_ProductReview"><path codeLine="101" d="M276.25,374.91 C276.25,359.18 276.25,345 276.25,345 C276.25,345 535.33,345 535.33,345 C535.33,345 535.33,386.19 535.33,386.19 " fill="none" id="Product-to-ProductReview" style="stroke:#454645;stroke-width:1.0;"/><polygon fill="none" points="535.33,399.19,539.33,393.19,535.33,387.19,531.33,393.19,535.33,399.19" style="stroke:#454645;stroke-width:1.0;"/><text fill="#000000" font-family="sans-serif" font-size="13" lengthAdjust="spacing" textLength="7" x="277.6555" y="363.8418">1</text><text fill="#000000" font-family="sans-serif" font-size="13" lengthAdjust="spacing" textLength="7" x="521.9008" y="388.3226">*</text></g></g></svg>